<?xml version="1.0" encoding="utf-8"?>
<!-- Generator: Adobe Illustrator 14.0.0, SVG Export Plug-In  -->
<!DOCTYPE svg PUBLIC "-//W3C//DTD SVG 1.1//EN" "http://www.w3.org/Graphics/SVG/1.1/DTD/svg11.dtd" [
	<!ENTITY ns_flows "http://ns.adobe.com/Flows/1.0/">
]>
<svg version="1.1"
	 xmlns="http://www.w3.org/2000/svg" xmlns:xlink="http://www.w3.org/1999/xlink" xmlns:a="http://ns.adobe.com/AdobeSVGViewerExtensions/3.0/"
	 x="0px" y="0px" width="1066px" height="1066px" viewBox="-0.916 -0.767 1066 1066"
	 enable-background="new -0.916 -0.767 1066 1066" xml:space="preserve">
<defs>
</defs>
<circle fill="#F1EBFA" cx="532.293" cy="532.293" r="532.293"/>
<path fill="#363654" d="M538.829,128.333C344.423,115.517,398.765,361.776,427.841,416.28c0.29,0.188,52.109-29.033,107.307-29.779
	c53.319-0.722,109.947,27.01,117.613,28.205C679.356,360.741,722.353,140.431,538.829,128.333z"/>
<path fill="#F5F5F5" d="M664.32,489.965c0,16.825-58.178,244.178-126.601,244.178S416.54,504.17,416.54,487.345
	S472.008,459.5,540.431,459.5S664.32,473.14,664.32,489.965z"/>
<path fill="#FFCECE" d="M734.747,595.708c-2.101-29.368-10.943-59.837-30.282-82.619c-20.478-24.123-51.76-27.566-78.953-40.099
	c-29.271-13.489-34.355-67.159-34.312-87.75l-104.089,3.344c0,0,2.354,50.661-5.477,63.131
	c-11.148,17.753-33.777,22.697-52.906,29.115c-21.943,7.363-40.62,15.351-55.878,33.657c-18.973,22.764-27.638,52.966-29.675,82.106
	c-3.07,43.918,13.201,86.629,21.592,129.901c6.582,33.939,18.052,62.314,24.289,93.463c14.342,71.62,77.358,123.081,150.399,122.894
	h0.001c72.84-0.187,135.635-51.663,149.664-123.139c6.159-31.382,17.682-59.914,24.247-94.069
	C721.688,682.359,737.889,639.622,734.747,595.708z"/>
<path fill="#FFFFFF" d="M421.272,479.209l-63.037,10.06c-89.015,16.408-90.206,119.275-84.717,174.604
	c7.13,71.869,10.919,203.139,12.704,341.151c73.595,38.436,157.294,60.171,246.07,60.171c0.906,0,1.811-0.004,2.716-0.008
	l0.376-244.799l-74.177-130.125L421.272,479.209z"/>
<path fill="#FFFFFF" d="M714.396,491.035c-0.014-0.003-58.765-11.547-58.765-11.547c-2.06,83.964-12.249,140.478-12.249,140.478
	s-71.345,162.315-105.259,201.011c-60.116,68.591-27.767,156.358-16.45,244.114c3.531,0.069,7.071,0.104,10.619,0.104
	c81.741,0,159.179-18.426,228.387-51.35c5.727-182.851,13.072-363.817,19.912-440.418
	C783.859,536.825,760.285,500.052,714.396,491.035z"/>
<path fill="#8B73FF" d="M431.033,580.158c67.262,24.778,159.509,14.57,213.668-8.168C658.69,566.117,596.58,724,596.58,724
	l-61.607,90.354l-54.402-89.116C480.57,725.238,412.999,573.515,431.033,580.158z"/>
<path fill="#9485FF" d="M431.033,588.547c67.262,24.778,159.509,14.57,213.668-8.168c13.989-5.873-48.121,152.01-48.121,152.01
	l-61.607,90.354l-54.402-89.116C480.57,733.628,412.999,581.904,431.033,588.547z"/>
<path fill="#F5F5F5" d="M535.574,821.512c-0.734,0.004-1.416,0.272-1.941,0.787c-0.564,0.554-0.893,1.348-0.9,2.178
	c-0.02,2.249-1.172,124.305-2.45,240.711c0.671,0.002,1.34,0.006,2.011,0.006c1.211,0,2.421-0.004,3.631-0.013
	c1.275-116.431,2.418-238.405,2.438-240.651C538.374,822.883,537.124,821.528,535.574,821.512z"/>
<path fill="#F5F5F5" d="M693.781,696.357l-6.801,175.166c0,0,61.883,6.087,61.432,3.607S693.781,696.357,693.781,696.357z"/>
<path fill="#F5F5F5" d="M535.244,912.184l0.002-1.594l-250.174,25.234c0.271,14.757,0.515,29.701,0.734,44.767
	c79.932,10.922,212.818-48.852,249.435-66.295L535.244,912.184z"/>
<path fill="#FFCECE" d="M691.056,810.003l24.696,13.272l5.705,30.405c2.633,9.619-1.291,19.747-10.188,24.252
	c-12.709,6.437-33.341,3.644-39.076,4.048c-20.033,1.411-65.815-27.591-65.815-27.591l26.468-34.655
	c8.092-7.427,35.014-12.893,49.687-12.14C685.518,807.748,688.424,808.589,691.056,810.003z"/>
<polygon fill="#F5F5F5" points="370.002,694.83 365.764,889.333 288.519,882.246 "/>
<path fill="#FFFFFF" d="M231.457,888.294c5.68-110.012,11.736-221.945,49.492-325.437c5.79-15.853,12.577-31.881,24.431-43.898
	c11.86-12.017,29.914-19.278,45.982-14.107c18.444,5.94,27.589,24.821,30.806,44.771l0.053,31.341
	c-1.955,63.598-8.588,174.057-35.463,275.756c-0.454,1.715,0.967,3.345,2.726,3.115c37.729-4.946,287.763-68.494,307.501-53.349
	c18.97,14.555,16.808,86.755,16.808,86.755c-36.722,0.106-336.763,76.181-372.929,70.657c-16.525-2.53-33.381-5.931-47.075-14.595
	c-11.836-7.493-20.889-19.774-21.463-32.913C230.593,907.321,230.975,897.608,231.457,888.294z"/>
<path fill="#F5F5F5" d="M672.664,843.757c-2.358-16.506-6.733-32.262-14.784-38.439c-13.354-10.249-117.043,11.626-231.325,36.942
	c-12.966,2.872-24.971,5.531-35.58,7.838c-0.071,1.026-0.207,2.061-0.4,3.098c10.869-2.36,23.23-5.098,36.617-8.063
	c43.616-9.662,97.898-21.687,142.691-29.889c64.123-11.744,82.272-10.609,86.206-7.591c7.352,5.641,11.414,20.623,13.645,36.501
	c0.089,0.63,0.569,1.142,1.197,1.241c0.011,0.001,0.021,0.003,0.031,0.005C671.941,845.556,672.805,844.739,672.664,843.757z"/>
<path fill="#F5F5F5" d="M637.845,897.022c-18.9,3.583-43.378,8.75-70.904,14.711c0.244,0.952,0.452,1.912,0.625,2.879
	c27.769-6.01,52.98-11.324,72.218-14.946C639.083,898.821,638.438,897.938,637.845,897.022z"/>
<path fill="#FFCECE" d="M410.67,801.977l-54.043,12.945c0,0-21.894,51.694-1.595,50.555c14.224-0.798,106.849-16.497,106.849-16.497
	L410.67,801.977z"/>
<path fill="#F5F5F5" d="M763.119,939.446L504.144,899.01c-0.143,1.204-0.271,2.411-0.388,3.62c0,0.001,0,0.002-0.001,0.003
	c41.544,18.608,178.143,77.504,257.788,84.483C762.058,971.15,762.583,955.238,763.119,939.446z"/>
<path fill="#F5F5F5" d="M540.42,822.147c-36.543-24.285-112.752-154.548-112.752-154.548l14.647-12.242l-19.671-2.278
	c0,0-14.849-96.046-13.691-171.733c8.827-8.56,22.541-15.798,33.31-10.692C461.44,586.041,515.114,776.832,540.42,822.147z"/>
<circle fill="#CDD1E6" cx="487.082" cy="767.493" r="8.285"/>
<circle fill="#CDD1E6" cx="346.188" cy="779.001" r="8.285"/>
<path fill="#F5F5F5" d="M535.122,822.736c36.544-24.285,115.918-154.548,115.918-154.548l-14.647-12.242l19.671-2.278
	c0,0,14.849-96.046,13.692-171.734c-8.827-8.559-22.541-15.797-33.311-10.692C617.268,586.629,560.428,777.42,535.122,822.736z"/>
<path fill="#FFFFFF" d="M829.479,880.836c-5.679-110.012-8.793-221.945-46.55-325.437c-5.79-15.853-10.811-29.527-22.664-41.543
	c-11.86-12.017-34.623-21.633-50.691-16.462c-18.445,5.94-27.589,24.821-30.807,44.771l-0.052,31.341
	c1.978,64.327,6.894,175.979,34.548,278.633c-20.379-0.974-291.105-70.023-310.041-52.304
	c-19.596,18.336,0.368,105.054,0.368,105.054c36.722,0.105,320.315,57.075,356.482,51.55c16.526-2.53,33.381-5.931,47.075-14.595
	c11.836-7.493,20.889-19.773,21.463-32.912C830.344,899.863,829.961,890.15,829.479,880.836z"/>
<path fill="#F5F5F5" d="M403.246,902.645c0.721-0.221,1.152-0.953,0.998-1.691c-3.468-16.499-16.551-84.574-0.017-100.046
	c3.781-3.538,22.932-5.084,92.667,7.65c40.316,7.361,87.949,17.721,127.535,26.508c0.856,0.19,1.737-0.353,1.852-1.222
	c0.102-0.771-0.398-1.471-1.136-1.634c-39.625-8.796-87.331-19.172-127.722-26.548c-76.938-14.048-91.184-10.668-95.207-6.903
	c-17.881,16.731-4.474,85.874-0.863,102.809c0.18,0.842,1.041,1.339,1.864,1.085C403.227,902.651,403.236,902.648,403.246,902.645z"
	/>
<path fill="#FFAEAE" d="M622.816,486.122c2.588-1.603,4.317-4.46,4.317-7.729c0-2.085-0.709-4.001-1.891-5.535
	c-2.026-0.956-3.937-2.107-5.735-3.426c-0.454-0.074-0.915-0.125-1.389-0.129c0.196-0.155,0.379-0.325,0.562-0.495
	c-7.255-5.63-12.661-14.043-16.665-23.532c-0.467-0.073,1.062,7.989,3.016,11.705c-1.023,1.471-1.627,3.256-1.627,5.184
	c0,4.996,4.029,9.047,9.015,9.089c-2.112,1.665-3.472,4.241-3.472,7.138c0,3.511,1.993,6.552,4.906,8.067
	c-2.588,1.603-4.317,4.46-4.317,7.728c0,2.346,0.896,4.477,2.354,6.09c-3.869,1.045-6.72,4.57-6.72,8.77
	c0,1.457,0.352,2.83,0.96,4.05c-0.504-0.087-1.02-0.142-1.549-0.142c-5.022,0-9.094,4.071-9.094,9.094
	c0,0.574,0.06,1.134,0.161,1.678c-0.899-0.298-1.859-0.466-2.859-0.466c-4.595,0-8.383,3.411-8.996,7.837
	c-1.289-0.7-2.766-1.098-4.336-1.098c-4.525,0-8.268,3.31-8.966,7.638c-1.623-1.504-3.788-2.432-6.176-2.432
	c-3.674,0-6.831,2.183-8.266,5.319c-1.659-2.204-4.29-3.636-7.262-3.636c-3.282,0-6.15,1.746-7.749,4.354
	c-1.652-2.277-4.328-3.765-7.357-3.765c-3.087,0-5.811,1.542-7.454,3.894c-1.542-2.827-4.54-4.746-7.987-4.746
	c-2.388,0-4.554,0.928-6.176,2.432c-0.698-4.329-4.441-7.638-8.967-7.638c-1.541,0-2.99,0.387-4.262,1.063
	c0.008-0.158,0.023-0.314,0.023-0.474c0-5.022-4.071-9.093-9.094-9.093c-0.82,0-1.612,0.119-2.369,0.323
	c0.164-0.683,0.26-1.392,0.26-2.124c0-5.022-4.071-9.094-9.094-9.094c-0.218,0-0.432,0.018-0.646,0.033
	c0.413-1.038,0.646-2.167,0.646-3.353c0-4.2-2.851-7.725-6.72-8.77c1.458-1.613,2.354-3.744,2.354-6.089
	c0-3.268-1.729-6.125-4.317-7.728c2.913-1.516,4.906-4.556,4.906-8.067c0-2.577-1.077-4.899-2.8-6.554
	c4.947-0.087,8.932-4.118,8.932-9.085c0-1.191-0.235-2.327-0.651-3.369c0.472-0.657,0.932-1.329,1.369-2.025
	c1.572-2.505,2.85-11.526,2.473-11.551c-0.684,2.561-1.499,4.702-2.473,6.253c-4.34,6.91-10.423,11.875-17.357,15.746
	c0.365,0.543,0.782,1.048,1.253,1.5c-4.947,0.087-8.933,4.118-8.933,9.085c0,3.269,1.73,6.125,4.318,7.729
	c-2.913,1.515-4.906,4.556-4.906,8.067c0,4.2,2.851,7.725,6.72,8.77c-1.458,1.613-2.354,3.744-2.354,6.09
	c0,5.022,4.071,9.093,9.093,9.093c0.219,0,0.433-0.017,0.646-0.032c-0.412,1.038-0.646,2.167-0.646,3.353
	c0,5.022,4.072,9.094,9.094,9.094c0.821,0,1.613-0.119,2.369-0.323c-0.163,0.683-0.259,1.392-0.259,2.124
	c0,5.022,4.071,9.094,9.093,9.094c1.541,0,2.991-0.387,4.263-1.063c-0.008,0.158-0.024,0.314-0.024,0.474
	c0,5.022,4.072,9.094,9.094,9.094c2.388,0,4.554-0.928,6.176-2.432c0.698,4.329,4.441,7.638,8.967,7.638
	c3.086,0,5.81-1.542,7.453-3.893c1.543,2.827,4.541,4.746,7.988,4.746c3.283,0,6.15-1.746,7.749-4.353
	c1.653,2.277,4.329,3.764,7.357,3.764c3.674,0,6.831-2.183,8.266-5.319c1.659,2.204,4.29,3.636,7.262,3.636
	c4.525,0,8.269-3.309,8.966-7.638c1.623,1.505,3.789,2.432,6.176,2.432c4.595,0,8.383-3.411,8.997-7.837
	c1.288,0.701,2.766,1.098,4.335,1.098c5.022,0,9.094-4.071,9.094-9.094c0-0.574-0.06-1.134-0.161-1.678
	c0.899,0.298,1.859,0.465,2.859,0.465c5.022,0,9.094-4.071,9.094-9.093c0-1.458-0.352-2.83-0.961-4.05
	c0.505,0.086,1.021,0.141,1.55,0.141c5.021,0,9.093-4.071,9.093-9.093c0-2.346-0.896-4.477-2.354-6.089
	c3.869-1.045,6.72-4.57,6.72-8.77C627.723,490.678,625.729,487.637,622.816,486.122z"/>
<circle fill="#8B73FF" cx="614.263" cy="503.75" r="9.093"/>
<circle fill="#8B73FF" cx="592.789" cy="527.059" r="9.094"/>
<circle fill="#8B73FF" cx="579.457" cy="533.798" r="9.094"/>
<circle fill="#8B73FF" cx="564.315" cy="539.003" r="9.093"/>
<circle fill="#8B73FF" cx="604.581" cy="516.753" r="9.094"/>
<circle fill="#8B73FF" cx="618.629" cy="488.892" r="9.094"/>
<circle fill="#8B73FF" cx="618.041" cy="473.096" r="9.093"/>
<circle fill="#8B73FF" cx="612.498" cy="456.868" r="9.093"/>
<path fill="#8B73FF" d="M607.077,455.316c1.608-1.64,2.604-3.885,2.604-6.365c0-5.022-4.072-9.093-9.094-9.093
	c-0.225,0-0.444,0.018-0.664,0.033C601.873,445.367,604.232,450.606,607.077,455.316z"/>
<circle fill="#8B73FF" cx="469.469" cy="503.404" r="9.093"/>
<circle fill="#8B73FF" cx="489.766" cy="526.712" r="9.093"/>
<circle fill="#8B73FF" cx="503.098" cy="535.217" r="9.094"/>
<circle fill="#8B73FF" cx="518.24" cy="540.423" r="9.093"/>
<circle fill="#8B73FF" cx="478.563" cy="515.817" r="9.094"/>
<circle fill="#8B73FF" cx="465.103" cy="488.544" r="9.093"/>
<circle fill="#8B73FF" cx="465.692" cy="472.749" r="9.093"/>
<circle fill="#8B73FF" cx="471.824" cy="457.11" r="9.093"/>
<circle fill="#8B73FF" cx="533.682" cy="541.275" r="9.094"/>
<circle fill="#8B73FF" cx="548.789" cy="540.687" r="9.093"/>
<path fill="#8B73FF" d="M478.099,456.506c1.275-1.487,2.46-3.078,3.536-4.791c1.572-2.505,2.733-6.552,3.586-11.417
	c-0.547-0.103-1.108-0.162-1.686-0.162c-5.021,0-9.093,4.071-9.093,9.094C474.442,452.21,475.883,454.848,478.099,456.506z"/>
<circle fill="#F5F5F5" cx="680.456" cy="704.815" r="35.352"/>
<path fill="#FFAEAE" d="M590.352,400.128c0.475-0.479,0.934-0.969,1.398-1.455c-0.407-5.226-0.558-9.835-0.55-13.433l-103.794,3.335
	c0.041,3.255,0.055,7.022-0.002,11.03c0.029,2.135,0.045,4.494,0.036,7C517.339,430.181,556.287,434.533,590.352,400.128z"/>
<path fill="#FFAEAE" d="M632.548,306.528c19.757,3.88,34.938-39.001,34.093-62.097c-0.648-17.68-9.965-25.306-26.072-22.694
	C617.605,225.458,613.7,302.826,632.548,306.528z"/>
<path fill="#FFAEAE" d="M435.619,307.354c-19.847,3.419-33.993-39.8-32.592-62.868c1.073-17.658,10.57-25.065,26.613-22.08
	C452.508,226.661,454.552,304.092,435.619,307.354z"/>
<path fill="#FFCECE" d="M632.049,192.385c-12.42-71.529-126.825-96.08-176.069-46.015c-44.164,44.901-28.507,152.24-4.555,203.851
	c26.137,56.319,87.724,91.322,138.495,40.104C638.272,341.547,643.084,255.932,632.049,192.385z"/>
<path fill="#FFAEAE" d="M631.463,192.385c-12.422-71.529-126.826-96.08-176.07-46.015c-23.098,23.482-31.138,54.423-30.69,97.606
	c22.579-31.296,65.823-64.042,75.14-103.712c7.765,15.597,25.05,52.663,58.746,65.796c48.698,18.979,76.918,52.43,77.937,53.964
	C637.322,232.095,635.549,215.919,631.463,192.385z"/>
<path fill="#3F3F63" d="M713.831,272.177c-1.801,69.48-23.384,115.486-61.07,142.529c-0.059-0.006,0.064,0.012,0,0
	c20.669-53.383,10.278-117.392-22.231-164.273c-16.972-24.466-37.663-35.552-66.669-50.24
	c-51.562-26.109-65.472-75.274-65.472-75.274s-11.752,30.259-23.562,48.048c-11.815,17.795-29.296,36.956-39.858,55.554
	c-32.512,57.251-34.973,128.008-7.316,187.729c-41.683-26.86-66.584-73.372-68.976-144.28
	c-3.988-118.256,33.95-211.693,173.59-224.678C629.94,38.211,717.295,138.6,713.831,272.177z"/>
<path fill="#47476B" d="M642.094,86.472c-0.138,0.34-0.281,0.681-0.431,1.016c-3.67,8.346-9.198,15.746-12.655,24.191
	c-5.888,14.368-5.353,30.53-4.484,46.088c0.875,15.552,1.933,31.585-3.037,46.312c-2.787,8.252-8.005,16.028-14.742,21.278
	c-5.566-4.313-11.529-8.179-17.985-11.928c5.486-5.099,9.74-11.906,12.165-19.079c4.976-14.726,3.918-30.76,3.044-46.312
	c-0.874-15.558-1.404-31.72,4.483-46.087c3.458-8.446,8.979-15.846,12.655-24.191c0.861-1.954,1.608-3.956,2.246-5.993
	C629.849,76.15,636.108,81.062,642.094,86.472z"/>
<path fill="#47476B" d="M608.107,62.672c-6.96,5.621-12.774,14.039-16.285,24.143c-5.246,15.092-5.401,31.47-5.553,47.349
	c-0.139,14.567-0.296,31.078-5.66,45.703c-3.057,8.334-7.888,15.742-13.856,21.794c1.458,0.741,2.891,1.473,4.307,2.201
	c5.939-6.305,10.743-13.885,13.846-22.345c5.648-15.4,5.81-32.352,5.952-47.347c0.147-15.452,0.3-31.43,5.287-45.781
	c3.505-10.083,9.438-18.296,16.43-23.294C611.096,64.26,609.605,63.453,608.107,62.672z"/>
<path fill="#3F3F63" d="M490.941,77.921c-7.123-8.147-16.853-13.768-27.803-14.94c-17.177-1.839-34.935,5.45-47.76,16.914
	c-1.665,1.487-3.251,3.067-4.727,4.752c-52.732,60.227-56.32,143.428-54.844,187.323c2.391,70.906,30.158,117.418,71.846,144.283
	c-27.656-59.726-25.194-130.478,7.313-187.732c10.564-18.598,28.046-37.755,39.86-55.554c1.825-2.752,3.651-5.804,5.432-8.991
	c7.961-11.496,14.766-24.113,18.759-37.097c3.04-9.882,5.129-20.355,2.093-30.509C499.061,89.511,495.545,83.188,490.941,77.921z"/>
<path fill="#363654" d="M410.652,84.646c1.476-1.685,3.062-3.265,4.726-4.752c12.826-11.464,30.584-18.752,47.761-16.914
	c10.95,1.172,20.68,6.793,27.803,14.94c4.604,5.267,8.119,11.589,10.17,18.449c1.115,3.729,1.534,7.502,1.474,11.272
	c1.28-6.682,1.542-13.489-0.452-20.157c-2.016-6.74-5.469-12.952-9.992-18.127c-6.999-8.005-16.559-13.528-27.318-14.68
	c-16.877-1.807-34.324,5.354-46.928,16.618c-1.635,1.462-3.193,3.014-4.643,4.669c-20.129,22.989-32.967,49.384-41.06,75.599
	C380.492,128.235,392.732,105.114,410.652,84.646z"/>
</svg>
