<svg width="22" height="22" viewBox="0 0 22 22" fill="none" xmlns="http://www.w3.org/2000/svg">
<path d="M11 22C17.0751 22 22 17.0751 22 11C22 4.92487 17.0751 0 11 0C4.92487 0 0 4.92487 0 11C0 17.0751 4.92487 22 11 22Z" fill="#FFFEFE"/>
<path fill-rule="evenodd" clip-rule="evenodd" d="M14.1437 5.7442C13.0223 5.7442 11.9683 6.18031 11.174 6.97464L10.9975 7.15115L10.821 6.97464C10.0267 6.18031 8.97276 5.7442 7.8513 5.7442C6.73509 5.7442 5.68122 6.18031 4.89203 6.96944C4.09775 7.76378 3.66165 8.81769 3.66679 9.93391C3.66679 11.0553 4.10813 12.1041 4.89727 12.8984L10.4991 18.5002C10.6341 18.6352 10.8158 18.7079 10.9923 18.7079C11.1689 18.7079 11.3506 18.6404 11.4855 18.5054L17.103 12.9088C17.8973 12.1144 18.3334 11.0605 18.3334 9.94429C18.3334 8.82288 17.8973 7.76897 17.1081 6.97464C16.3138 6.18031 15.2599 5.7442 14.1437 5.7442Z" fill="#D3392E"/>
</svg>
