<svg width="25" height="25" viewBox="0 0 25 25" fill="none" xmlns="http://www.w3.org/2000/svg">
<g clip-path="url(#clip0_43_252)">
<path d="M7.26979 3.20208C8.19173 3.04499 9.13717 3.09681 10.0364 3.35371C10.9357 3.61061 11.7658 4.06605 12.4656 4.68645L12.5042 4.72083L12.5396 4.68958C13.2075 4.10343 13.9927 3.66645 14.8429 3.40779C15.6931 3.14913 16.5886 3.07474 17.4698 3.18958L17.726 3.22708C18.8368 3.41886 19.875 3.90745 20.7307 4.64111C21.5864 5.37477 22.2278 6.32619 22.5869 7.39461C22.9461 8.46304 23.0096 9.6087 22.7707 10.7103C22.5319 11.8118 21.9996 12.8283 21.2302 13.6521L21.0427 13.8448L20.9927 13.8875L13.2323 21.574C13.0532 21.7512 12.8159 21.8575 12.5645 21.8732C12.313 21.8889 12.0643 21.813 11.8646 21.6594L11.7667 21.574L3.96146 13.8427C3.1346 13.0382 2.54656 12.0205 2.26246 10.9024C1.97835 9.78422 2.00927 8.60926 2.35179 7.50761C2.69431 6.40596 3.33506 5.42062 4.20309 4.66069C5.07111 3.90077 6.13253 3.39593 7.26979 3.20208Z" fill="#440F80"/>
</g>
<defs>
<clipPath id="clip0_43_252">
<rect width="25" height="25" fill="white"/>
</clipPath>
</defs>
</svg>
