<svg width="25" height="25" viewBox="0 0 25 25" fill="none" xmlns="http://www.w3.org/2000/svg">
<path d="M20.3125 13.0958L12.5 20.8333L4.68749 13.0958C4.17218 12.5944 3.76628 11.9917 3.49535 11.3257C3.22442 10.6596 3.09432 9.94474 3.11326 9.22597C3.13219 8.5072 3.29974 7.80014 3.60536 7.14931C3.91098 6.49848 4.34805 5.91797 4.88904 5.44435C5.43003 4.97074 6.06322 4.61426 6.74875 4.39738C7.43428 4.18049 8.15729 4.1079 8.87225 4.18417C9.58721 4.26044 10.2786 4.48391 10.903 4.84053C11.5273 5.19714 12.0711 5.67917 12.5 6.25625C12.9308 5.68336 13.4751 5.20554 14.0991 4.85271C14.723 4.49989 15.413 4.27964 16.126 4.20575C16.8389 4.13187 17.5594 4.20594 18.2425 4.42333C18.9255 4.64072 19.5563 4.99674 20.0954 5.46913C20.6344 5.94152 21.0702 6.52009 21.3754 7.16864C21.6806 7.81719 21.8487 8.52175 21.8691 9.23824C21.8894 9.95472 21.7617 10.6677 21.4939 11.3326C21.226 11.9974 20.8239 12.5998 20.3125 13.1021" stroke="#440F80" stroke-width="1.5625" stroke-linecap="round" stroke-linejoin="round"/>
</svg>
