<svg width="25" height="25" viewBox="0 0 25 25" fill="none" xmlns="http://www.w3.org/2000/svg">
<g clip-path="url(#clip0_43_255)">
<path d="M14.5833 3.125V7.29167C14.5833 7.56793 14.6931 7.83289 14.8884 8.02824C15.0838 8.22359 15.3487 8.33333 15.625 8.33333H19.7917" stroke="#440F80" stroke-width="1.5625" stroke-linecap="round" stroke-linejoin="round"/>
<path d="M17.7083 21.875H7.29166C6.73913 21.875 6.20922 21.6555 5.81852 21.2648C5.42782 20.8741 5.20833 20.3442 5.20833 19.7917V5.20833C5.20833 4.6558 5.42782 4.12589 5.81852 3.73519C6.20922 3.34449 6.73913 3.125 7.29166 3.125H14.5833L19.7917 8.33333V19.7917C19.7917 20.3442 19.5722 20.8741 19.1815 21.2648C18.7908 21.6555 18.2609 21.875 17.7083 21.875Z" stroke="#440F80" stroke-width="1.5625" stroke-linecap="round" stroke-linejoin="round"/>
<path d="M9.375 17.7083H15.625" stroke="#440F80" stroke-width="1.5625" stroke-linecap="round" stroke-linejoin="round"/>
<path d="M9.375 13.5417H15.625" stroke="#440F80" stroke-width="1.5625" stroke-linecap="round" stroke-linejoin="round"/>
</g>
<defs>
<clipPath id="clip0_43_255">
<rect width="25" height="25" fill="white"/>
</clipPath>
</defs>
</svg>
