<svg width="34" height="34" viewBox="0 0 34 34" fill="none" xmlns="http://www.w3.org/2000/svg">
<g clip-path="url(#clip0_43_434)">
<path d="M16.6964 4.17416C16.8801 4.17416 17.0624 4.17416 17.2432 4.17416C15.4558 5.83504 14.3069 8.06977 13.9962 10.4899C13.6855 12.91 14.2327 15.3625 15.5426 17.421C16.8526 19.4795 18.8424 21.014 21.1663 21.7575C23.4903 22.5011 26.0013 22.4069 28.2629 21.4911C27.3929 23.5844 25.971 25.4023 24.1489 26.7509C22.3267 28.0994 20.1727 28.9281 17.9165 29.1484C15.6604 29.3687 13.3867 28.9725 11.3381 28.0019C9.2895 27.0314 7.54276 25.5229 6.28424 23.6375C5.02571 21.752 4.3026 19.5603 4.19203 17.2961C4.08146 15.0319 4.58759 12.7802 5.65643 10.7811C6.72526 8.782 8.31671 7.11053 10.261 5.945C12.2053 4.77946 14.4295 4.16357 16.6964 4.16302V4.17416Z" stroke="white" stroke-width="2.08705" stroke-linecap="round" stroke-linejoin="round"/>
</g>
<defs>
<clipPath id="clip0_43_434">
<rect width="33.3929" height="33.3929" fill="white"/>
</clipPath>
</defs>
</svg>
