<svg width="34" height="34" viewBox="0 0 34 34" fill="none" xmlns="http://www.w3.org/2000/svg">
<g clip-path="url(#clip0_43_437)">
<path d="M12.5223 16.6964C12.5223 17.8035 12.962 18.8652 13.7448 19.648C14.5276 20.4308 15.5893 20.8706 16.6964 20.8706C17.8034 20.8706 18.8651 20.4308 19.6479 19.648C20.4307 18.8652 20.8705 17.8035 20.8705 16.6964C20.8705 15.5894 20.4307 14.5277 19.6479 13.7449C18.8651 12.9621 17.8034 12.5223 16.6964 12.5223C15.5893 12.5223 14.5276 12.9621 13.7448 13.7449C12.962 14.5277 12.5223 15.5894 12.5223 16.6964Z" stroke="white" stroke-width="2.08705" stroke-linecap="round" stroke-linejoin="round"/>
<path d="M8.34817 8.34823H13.218L16.6964 4.86981L20.1748 8.34823H25.0446V13.218L28.523 16.6964L25.0446 20.1749V25.0447H20.1748L16.6964 28.5231L13.218 25.0447H8.34817V20.1749L4.86975 16.6964L8.34817 13.218V8.34823Z" stroke="white" stroke-width="2.08705" stroke-linecap="round" stroke-linejoin="round"/>
</g>
<defs>
<clipPath id="clip0_43_437">
<rect width="33.3929" height="33.3929" fill="white"/>
</clipPath>
</defs>
</svg>
